<?xml version="1.0" encoding="UTF-8"?>
<svg width="552px" height="625px" viewBox="0 0 552 625" version="1.1" xmlns="http://www.w3.org/2000/svg" xmlns:xlink="http://www.w3.org/1999/xlink">
    <!-- Generator: Sketch 52.4 (67378) - http://www.bohemiancoding.com/sketch -->
    <title>Shape</title>
    <desc>Created with Sketch.</desc>
    <g id="Symbols" stroke="none" stroke-width="1" fill="none" fill-rule="evenodd">
        <g id="Shape" fill="#40B890" fill-rule="nonzero">
            <path d="M207.169,31.57 C207.705,48.91 214.829,62.756 226.793,62.756 C242.386,62.756 249.913,48.506 247.761,31.569 C244.671,8.849 237.007,0.379 225.043,0.379 C208.509,0.785 206.764,14.228 207.169,31.57 Z M273.7,3.07 C258.51,3.07 257.566,18.667 257.7,30.63 C258.238,44.477 266.703,58.32 275.575,58.32 C286.195,58.722 292.918,48.105 294.262,27.538 C295.069,12.482 287.546,3.068 273.7,3.068 L273.7,3.07 Z M325.2,13.163 C314.27,13.496 307.508,25.055 305.294,47.975 C303.546,65.315 311.61,77.009 326.262,77.413 C342.259,78.353 344.002,60.077 344.137,45.693 C344.137,30.1 335.672,13.566 326.262,13.163 C325.902,13.15 325.552,13.153 325.2,13.163 Z M178.262,19.88 C163.61,20.285 162.262,31.44 162.262,44.88 C162.666,58.727 168.852,69.88 179.606,69.88 C193.452,69.88 200.176,58.727 198.294,44.88 C196.008,26.6 188.882,19.88 178.262,19.88 Z M373.044,33.32 C360.944,33.32 355.172,45.822 355.574,61.82 C356.382,77.412 359.041,89.915 375.574,90.32 C387.674,90.722 394.824,82.79 396.169,61.82 C397.109,46.225 388.636,33.32 373.043,33.32 L373.044,33.32 Z M131.7,38.693 C120.372,38.845 113.143,47.481 111.45,69.88 C110.106,87.222 118.172,101.475 134.17,101.475 C146.67,101.475 152.853,87.222 152.45,69.881 C152.047,52.541 149.763,39.098 132.825,38.695 C132.451,38.682 132.065,38.69 131.7,38.695 L131.7,38.693 Z M427.2,52.943 C416.148,53.071 409.424,61.325 407.73,83.723 C406.387,101.065 414.04,115.853 429.23,116.255 C440.792,116.659 446.978,102.812 446.575,85.068 C446.172,67.591 443.887,53.883 428.295,52.942 C427.928,52.929 427.557,52.938 427.2,52.942 L427.2,52.943 Z M81.075,64.505 C64.137,64.505 62.791,79.695 62.387,91.255 C62.925,104.698 71.39,118.005 81.607,118.005 C93.57,118.005 101.64,107.788 103.387,88.161 C105.135,73.375 96.667,64.505 81.075,64.505 Z M239.295,70.285 C227.733,70.285 221.525,81.981 221.795,95.693 C222.197,109.539 224.485,120.696 240.481,121.099 C252.177,121.502 259.297,114.379 261.045,95.693 C262.389,81.847 254.485,70.287 239.295,70.287 L239.295,70.285 Z M292.387,74.318 C277.735,74.72 271.011,89.908 273.7,107.786 C277.733,131.848 285.264,140.32 296.825,139.379 C312.418,138.439 313.763,123.789 312.419,105.911 C311.073,88.167 303.947,73.914 292.386,74.318 L292.387,74.318 Z M191.575,75.786 C179.611,75.786 171.948,85.469 170.2,104.692 C168.856,118.942 177.325,127.817 192.92,127.817 C209.856,127.817 211.735,113.157 210.794,101.597 C210.794,88.692 201.388,75.784 191.574,75.784 L191.575,75.786 Z M337.419,95.692 C325.319,95.692 324.377,106.452 324.511,114.786 C324.915,124.599 331.637,134.41 338.761,134.41 C347.768,134.814 353.008,127.285 353.949,113.035 C354.756,102.415 348.575,95.692 337.419,95.692 Z M470.229,100.129 C459.073,100.129 453.699,113.169 455.043,128.224 C455.983,143.817 458.133,156.321 473.323,156.724 C484.481,156.724 490.663,149.194 491.605,128.224 C492.009,113.034 484.479,100.13 470.23,100.13 L470.229,100.129 Z M143.449,108.599 C128.797,108.599 127.855,125.129 127.855,137.629 C128.393,151.879 135.918,166.536 144.385,166.536 C154.603,166.94 161.323,155.786 162.668,134.411 C164.011,118.415 156.756,108.599 143.448,108.599 L143.449,108.599 Z M383.605,110.474 C373.441,110.626 367.235,119.247 366.325,141.254 C365.517,158.194 373.045,172.444 387.293,172.444 C398.45,172.444 403.29,158.596 402.886,141.254 C401.946,124.318 399.258,110.877 384.606,110.474 C384.269,110.461 383.933,110.469 383.606,110.474 L383.605,110.474 Z M46.793,110.88 C32.14,110.88 24.48,122.043 25.823,139.787 C28.11,163.85 35.64,176.35 47.2,176.35 C56.61,176.35 65.05,159.813 64.512,143.412 C64.647,129.567 62.79,110.882 46.794,110.882 L46.793,110.88 Z M100.699,124.256 C87.697,124.826 80.289,138.8 80.669,156.444 C81.071,181.447 87.389,191.262 98.949,192.069 C114.542,193.009 117.636,178.222 118.979,159.537 C119.921,140.717 114.544,125.124 103.386,124.317 C102.471,124.234 101.566,124.217 100.699,124.255 L100.699,124.256 Z M242.511,131.319 C225.977,131.721 224.233,145.564 224.636,163.443 C225.443,181.321 232.166,195.568 244.668,195.568 C260.663,195.568 267.786,180.918 265.635,163.442 C262.545,139.782 254.878,131.317 242.51,131.317 L242.511,131.319 Z M428.293,134.537 C419.421,134.537 412.296,149.194 412.699,163.443 C413.639,175.541 415.793,192.473 431.386,192.473 C445.636,192.473 452.359,182.658 450.074,166.663 C446.982,145.288 439.316,134.133 428.294,134.537 L428.293,134.537 Z M191.168,138.037 C175.978,138.037 174.77,153.635 174.635,165.599 C175.173,179.445 183.638,193.287 192.51,193.287 C203.265,193.287 210.385,183.073 211.73,162.505 C212.94,147.449 205.416,138.037 191.167,138.037 L191.168,138.037 Z M291.448,148.255 C282.038,148.255 276.664,155.377 276.26,173.255 C275.857,186.698 282.443,197.315 294.542,196.911 C303.952,196.508 307.986,185.354 307.448,171.911 C306.641,158.469 303.95,147.851 291.448,148.255 Z M336.135,148.349 C335.807,148.349 335.472,148.363 335.135,148.379 C319.945,148.783 318.601,161.289 319.542,177.286 C319.945,193.821 326.259,206.724 337.417,206.724 C351.665,206.724 358.387,193.418 356.103,177.286 C353.108,156.581 346.333,148.353 336.133,148.349 L336.135,148.349 Z M507.073,149.319 C498.603,149.319 491.883,163.569 492.823,177.819 C493.361,189.782 496.043,206.319 510.293,206.319 C523.6,206.319 529.921,196.505 527.635,180.911 C524.545,159.941 517.425,149.318 507.073,149.318 L507.073,149.319 Z M17.073,174.069 C3.617,174.417 1.463,186.087 1.073,200.411 C0.401,215.198 5.788,227.696 16.543,228.099 C30.791,228.502 37.911,216.542 37.103,201.755 C35.76,181.725 29.036,174.068 18.417,174.068 C17.957,174.054 17.507,174.055 17.072,174.068 L17.073,174.069 Z M156.479,175.005 C148.011,175.409 143.039,184.817 142.636,203.099 C142.099,216.542 147.882,224.471 158.636,224.069 C170.196,223.664 170.726,209.416 170.324,198.662 C169.786,186.562 163.202,174.602 156.48,175.005 L156.479,175.005 Z M383.261,181.849 C373.448,181.849 367.671,188.036 366.731,206.319 C365.789,219.626 372.511,230.787 385.011,230.787 C394.825,230.787 399.261,219.627 399.261,206.317 C398.455,193.01 396.166,182.252 383.261,181.849 Z M467.949,183.069 C457.195,183.069 451.952,195.169 452.355,210.224 C453.295,225.28 455.445,236.977 470.635,237.38 C481.795,237.38 487.977,230.255 488.918,210.225 C489.723,195.169 482.198,183.069 467.948,183.069 L467.949,183.069 Z M63.729,186.162 C54.319,186.162 46.389,201.352 46.793,216.005 C46.389,229.045 48.14,246.38 64.136,246.38 C78.789,246.38 86.446,236.166 84.699,219.63 C82.414,197.316 74.889,186.163 63.729,186.163 L63.729,186.162 Z M200.043,200.942 C191.171,200.942 183.48,213.044 183.48,225.412 C184.02,236.166 186.332,249.88 201.387,249.88 C215.637,249.88 222.76,241.408 221.012,228.1 C218.324,210.22 211.202,200.944 200.044,200.944 L200.043,200.942 Z M112.23,204.442 C102.603,204.825 97.19,217.04 96.67,232.537 C96.67,248.533 98.013,261.439 112.262,262.38 C122.612,263.188 129.196,255.66 131.482,234.288 C133.229,218.291 126.508,204.848 113.2,204.444 C112.88,204.431 112.542,204.431 112.23,204.444 L112.23,204.442 Z M243.794,204.849 C235.068,205.257 229.929,211.659 228.669,227.162 C227.727,239.662 234.447,249.88 246.949,249.88 C256.762,249.88 262.006,240.067 261.199,227.163 C260.796,215.063 258.913,204.85 245.605,204.85 C244.992,204.825 244.375,204.823 243.793,204.85 L243.794,204.849 Z M286.606,204.974 C271.819,204.974 271.012,221.372 271.012,234.412 C271.416,248.662 279.484,263.318 288.356,263.318 C299.11,263.318 305.293,252.158 306.636,230.786 C307.578,214.789 300.452,204.973 286.606,204.973 L286.606,204.974 Z M430.044,207.13 C418.08,207.13 411.764,221.918 412.169,239.663 C413.109,257.541 416.199,271.79 433.136,272.193 C445.638,272.597 453.164,263.725 454.106,239.663 C455.046,221.783 446.039,207.131 430.043,207.131 L430.044,207.13 Z M332.574,215.6 C324.914,215.6 320.884,221.783 320.481,233.88 C320.079,242.888 325.321,248.128 334.731,247.725 C344.545,247.322 344.941,237.915 345.076,231.195 C344.136,223.128 338.356,215.6 332.576,215.6 L332.574,215.6 Z M525.074,219.35 C508.541,219.753 507.199,232.26 508.544,248.256 C508.947,264.253 516.07,277.163 528.169,277.163 C543.761,277.163 550.484,263.85 548.199,248.256 C544.569,226.882 536.635,219.35 525.074,219.35 Z M369.981,235.913 C361.556,235.901 356.219,245.158 357.857,261.038 C359.202,273.942 367.26,280.672 376.67,280.538 C386.08,279.731 392.666,277.038 390.92,258.756 C389.574,245.448 384.202,237.382 371.7,236.038 C371.112,235.954 370.543,235.913 369.98,235.913 L369.981,235.913 Z M23.671,236.569 C11.168,236.569 3.236,249.069 0.951,273.129 C-0.931,291.412 8.079,302.569 24.076,302.569 C41.416,302.569 43.296,283.751 43.296,269.099 C42.891,253.102 33.886,236.569 23.67,236.569 L23.671,236.569 Z M155.545,238.037 C146.135,238.037 137.67,250.137 137.67,262.505 C137.265,273.528 138.607,287.78 154.2,288.318 C168.852,288.72 176.516,280.248 175.575,266.536 C173.827,247.85 166.701,238.036 155.545,238.036 L155.545,238.037 Z M484.045,245.443 C473.445,245.936 468.441,252.886 469.701,263.723 C471.449,279.721 477.769,287.789 487.045,288.193 C494.573,288.193 500.888,277.978 500.888,267.223 C500.485,258.353 498.734,245.98 486.232,245.443 C485.477,245.418 484.752,245.41 484.046,245.443 L484.045,245.443 Z M330.232,255.255 C319.632,255.64 314.632,261.677 315.514,271.255 C317.262,285.101 323.039,292.63 332.046,292.63 C339.574,292.63 346.296,283.76 346.296,274.35 C346.699,266.42 345.356,255.794 332.452,255.256 C331.696,255.231 330.94,255.231 330.232,255.256 L330.232,255.255 Z M247.764,257.537 C237.951,257.537 232.171,262.915 230.827,277.567 C229.887,288.725 236.607,297.599 249.107,297.599 C258.921,297.599 263.897,288.725 263.357,277.569 C262.955,266.409 261.073,257.537 247.764,257.537 Z M67.796,259.693 C57.638,260.123 52.602,266.548 53.358,276.63 C54.703,291.284 60.08,299.353 68.952,299.756 C76.48,299.756 82.799,290.348 83.202,280.131 C83.336,271.798 82.019,260.231 69.922,259.695 C69.198,259.67 68.472,259.665 67.796,259.695 L67.796,259.693 Z M204.076,261.037 C194.666,261.037 189.424,266.409 188.483,280.255 C188.081,290.472 194.667,298.94 206.765,298.537 C215.772,298.537 220.209,290.072 219.672,279.317 C219.267,269.101 216.982,260.633 204.077,261.037 L204.076,261.037 Z M287.421,272.193 C278.413,272.596 272.636,277.973 272.231,291.818 C271.829,302.033 278.415,310.501 290.513,310.098 C299.923,309.695 304.361,301.228 303.42,290.473 C302.612,280.257 300.324,271.788 287.42,272.193 L287.421,272.193 Z M114.138,273.537 C106.073,273.94 101.236,283.755 100.295,302.037 C99.355,315.882 105.541,323.815 116.295,323.412 C127.855,323.008 128.789,308.352 127.982,297.599 C127.446,285.097 120.862,273.133 114.139,273.536 L114.138,273.537 Z M425.201,282.005 C412.296,282.005 411.357,298.941 412.701,311.443 C413.104,326.23 420.767,340.88 428.295,340.88 C437.301,341.285 443.079,330.127 443.482,308.35 C443.887,291.816 437.3,282.006 425.202,282.006 L425.201,282.005 Z M384.201,290.068 C369.951,290.068 363.228,302.168 365.513,317.223 C368.203,337.253 375.728,344.379 386.483,344.379 C401.673,343.977 403.017,332.279 402.076,317.224 C401.942,302.034 395.358,290.068 384.201,290.068 Z M531.107,291.692 C519.95,291.692 513.795,299.35 513.795,319.379 C513.391,334.167 521.858,346.127 536.107,345.724 C547.265,345.321 552.242,333.227 550.763,318.036 C549.419,303.25 546.297,291.289 531.107,291.693 L531.107,291.692 Z M469.295,296.254 C451.415,296.254 450.613,314.944 451.42,329.192 C452.225,346.129 462.577,362.662 472.794,362.662 C485.294,363.064 492.822,350.157 493.762,325.692 C494.702,307.41 485.29,296.254 469.294,296.254 L469.295,296.254 Z M155.951,298.536 C146.541,298.536 140.358,303.914 139.013,318.566 C137.669,329.724 144.387,338.598 156.888,338.598 C166.702,338.598 172.082,329.724 171.545,318.568 C171.141,307.408 169.259,298.536 155.951,298.536 Z M336.481,300.692 C320.486,300.692 312.821,315.885 315.107,333.629 C318.199,358.096 326.262,367.099 338.763,367.099 C355.701,366.696 357.445,351.912 356.638,333.629 C356.101,315.483 348.446,300.693 336.482,300.693 L336.481,300.692 Z M239.826,302.972 C223.292,302.57 221.546,321.662 221.546,335.912 C221.141,353.252 229.606,370.726 239.42,371.129 C251.383,372.071 258.915,359.165 261.2,334.162 C262.948,315.476 255.015,303.915 239.825,302.974 L239.826,302.972 Z M194.263,306.192 C184.853,306.595 179.073,313.319 178.67,332.004 C178.265,345.716 184.852,356.876 196.95,356.474 C206.36,355.934 210.77,344.372 210.23,330.661 C209.425,316.949 207.167,305.788 194.262,306.191 L194.263,306.192 Z M71.7,311.85 C62.648,312.277 54.716,325.202 54.325,339.006 C54.325,351.508 55.669,367.634 71.262,368.038 C85.915,368.978 93.982,359.568 92.637,343.975 C90.89,323.408 83.764,312.388 72.607,311.85 C72.312,311.837 71.992,311.836 71.7,311.85 Z M26.794,318.038 C13.704,318.388 11.559,330.056 11.169,344.381 C10.764,359.571 16.004,372.073 26.355,372.476 C39.663,372.879 46.921,360.919 45.98,346.132 C44.637,326.104 38.457,318.442 28.106,318.04 C27.661,318.027 27.216,318.028 26.794,318.04 L26.794,318.038 Z M285.574,321.131 C275.012,321.358 268.284,331.109 266.981,348.821 C266.041,362.666 273.705,371.131 288.357,371.131 C303.951,371.131 305.292,356.886 304.887,346.131 C304.485,333.631 296.017,321.131 286.607,321.131 C286.259,321.121 285.917,321.125 285.577,321.131 L285.574,321.131 Z M119.106,337.257 C103.513,337.661 101.762,352.447 101.762,371.132 C102.032,389.819 108.358,405.415 119.919,405.415 C135.109,405.415 142.229,389.819 140.479,371.133 C137.792,346.131 130.666,336.856 119.105,337.259 L119.106,337.257 Z M416.012,346.632 C415.675,346.632 415.326,346.648 414.982,346.664 C399.792,347.068 398.444,359.977 398.982,376.914 C400.192,393.852 406.918,407.696 418.075,407.696 C432.727,407.696 439.451,393.852 436.762,376.914 C433.767,355.297 426.486,346.662 416.012,346.634 L416.012,346.632 Z M171.92,352.04 C162.51,351.636 154.044,368.033 154.044,385.508 C153.774,400.564 155.544,420.198 171.137,420.602 C185.79,421.542 193.857,409.847 192.512,390.758 C190.765,365.352 183.614,352.04 171.919,352.04 L171.92,352.04 Z M372.512,359.977 C360.012,359.977 352.482,372.883 351.137,398.29 C350.197,416.975 359.203,429.07 375.2,429.07 C392.675,429.07 393.48,409.045 393.48,394.258 C392.54,377.321 382.73,359.978 372.512,359.978 L372.512,359.977 Z M511.232,362.665 C498.73,363.202 498.187,374.227 499.262,382.695 C500.202,392.912 507.328,402.321 514.856,402.321 C523.728,402.321 528.703,394.253 529.106,379.601 C529.51,368.847 522.792,362.261 511.231,362.663 L511.232,362.665 Z M466.606,376.915 C456.39,377.318 448.731,394.258 450.076,411.195 C451.016,426.385 454.643,445.605 472.386,444.665 C488.922,443.725 496.446,432.162 492.95,413.477 C488.514,389.011 479.108,376.511 466.606,376.914 L466.606,376.915 Z M317.386,380.415 C302.196,380.818 300.446,394.258 301.386,411.195 C301.656,428.268 308.386,441.977 319.544,441.977 C334.196,441.977 340.914,428.133 338.762,411.197 C335.672,388.477 328.545,380.415 317.387,380.415 L317.386,380.415 Z M220.606,380.945 C211.196,380.945 203.672,396.135 204.076,411.727 C204.613,424.632 206.763,441.977 222.356,441.977 C237.009,441.977 244.132,431.221 241.981,414.821 C239.294,392.101 231.765,380.541 220.607,380.945 L220.606,380.945 Z M51.95,383.226 C42.413,383.656 37.037,390.082 37.92,400.164 C39.263,414.816 44.106,422.884 52.575,423.289 C59.7,423.289 65.887,413.879 65.887,403.664 C66.827,395.194 66.017,383.629 53.919,383.226 C53.246,383.201 52.585,383.196 51.949,383.226 L51.95,383.226 Z M270.606,396.414 C260.793,396.414 255.013,404.071 253.669,424.101 C252.727,439.291 259.449,451.789 272.355,451.789 C282.572,451.789 287.412,439.291 286.605,424.101 C286.202,408.911 284.451,396.817 270.605,396.413 L270.606,396.414 Z M96.262,403.664 C84.702,403.664 78.922,417.107 79.325,433.507 C79.325,450.445 81.607,463.354 97.2,463.757 C108.76,463.757 115.484,455.822 117.23,433.507 C118.576,416.973 110.915,403.664 96.262,403.664 Z M423.45,424.1 C410.41,424.638 403.29,435.658 402.887,456.225 C402.484,471.818 411.353,481.228 427.887,480.288 C445.229,479.884 445.635,463.892 445.231,451.256 C444.021,437.41 433.667,423.696 423.451,424.1 L423.45,424.1 Z M146.67,427.725 C131.075,427.725 129.734,444.655 130.137,457.695 C130.137,472.75 138.603,487.945 148.012,487.945 C159.572,488.347 166.296,476.79 168.044,454.475 C168.984,437.941 161.321,427.725 146.669,427.725 L146.67,427.725 Z M362.67,448.225 C362.274,448.235 361.885,448.258 361.48,448.288 C344.14,449.228 343.2,464.28 344.544,483.1 C345.888,501.785 353.826,516.847 366.731,516.444 C383.267,515.504 390.387,499.91 387.295,481.224 C382.997,457.004 374.903,447.914 362.67,448.224 L362.67,448.225 Z M201.762,453.538 C192.89,453.538 185.765,468.732 186.169,483.788 C186.705,496.828 188.479,514.163 203.669,514.163 C217.514,514.163 224.237,503.943 222.355,487.006 C219.667,464.691 212.515,453.134 201.761,453.538 L201.762,453.538 Z M305.012,461.163 C298.875,461.215 291.738,462.538 284.732,462.538 C252.2,462.538 244.652,463.345 245.325,476.788 C245.325,523.971 248.952,553.412 244.919,563.225 C239.474,576.265 213.899,571.07 215.761,582.319 C215.357,583.464 215.448,584.882 216.168,586.629 C219.774,595.449 251.908,587.139 261.01,582.287 C254.423,609.127 215.04,608.062 213.73,616.317 C213.658,616.757 213.656,617.174 213.698,617.567 C213.58,617.814 213.521,618.084 213.478,618.349 C212.538,624.129 221.413,625.881 239.292,623.193 C261.472,617.95 289.54,588.508 310.512,590.255 C319.382,591.195 345.357,605.039 355.572,605.443 C368.612,606.383 372.104,602.347 373.448,600.599 C374.395,599.476 374.498,598.536 373.978,597.693 C381.868,587.01 325.168,592.311 325.168,560.13 C324.764,545.48 320.728,516.44 322.073,483.506 C322.661,464.519 315.24,461.076 305.011,461.163 L305.012,461.163 Z"></path>
        </g>
    </g>
</svg>